# xmcd
#
# Track frame offsets:
#	150
#	20062
#	38097
#	55002
#	77330
#	94217
#	111670
#	127002
#	146135
#	164050
#	179795
#	192607
#	205852
#	233607
#	254359
#
# Disc length: 3576 seconds
#
# Revision: 0
# Processed by: cddbd v1.5.1PL2 Copyright (c) Steve Scherf et al.
# Submitted via: audiograbber 1.83.01
#
DISCID=e10df60f
DTITLE=Sound Choice Karaoke - SC8282
DYEAR=1900
DGENRE=Karaoke Country
TTITLE0=Gill, Vince - Love Never Broke Anyone's Heart
TTITLE1=Brooks and Dunn - A Few Good Rides Away
TTITLE2=Milsap, Ronnie - True Believer
TTITLE3=Cartwright, Lionel - Be My Angel
TTITLE4=Mc Bride and The Ride - Been There
TTITLE5=Restless Heart - Hold You Now
TTITLE6=Tippin, Aaron - I Wouldn't Have It Any Other Way
TTITLE7=Twitty, Conway - I'm The Only Thing (I'll Hold Against You)
TTITLE8=Van Shelton, Ricky - A Couple Of Good Years Left
TTITLE9=Davis, Stephanie - All In The Heart
TTITLE10=Montgomery, John Michael - Line On Love
TTITLE11=Parton, Dolly - To Daddy
TTITLE12=Carpenter, Mary Chapin - Only A Dream
TTITLE13=Travis, Randy - Oscar The Angel
TTITLE14=Jones, George - I've Still Got Some Hurtin' Left To Do
EXTD=
EXTT0=
EXTT1=
EXTT2=
EXTT3=
EXTT4=
EXTT5=
EXTT6=
EXTT7=
EXTT8=
EXTT9=
EXTT10=
EXTT11=
EXTT12=
EXTT13=
EXTT14=
PLAYORDER=
